<?xml version="1.0" standalone="no"?><!DOCTYPE svg PUBLIC "-//W3C//DTD SVG 1.1//EN" "http://www.w3.org/Graphics/SVG/1.1/DTD/svg11.dtd"><svg t="1520505208030" class="icon" style="" viewBox="0 0 1024 1024" version="1.1" xmlns="http://www.w3.org/2000/svg" p-id="21134" xmlns:xlink="http://www.w3.org/1999/xlink" width="200" height="200"><defs><style type="text/css"></style></defs><path d="M209.5 462.7h566.4c24.2 0 44.9-13.9 54.2-36.2 9.2-22.3 4.4-46.8-12.7-63.9L710 255.3c-7.8-7.8-20.5-7.8-28.3 0s-7.8 20.5 0 28.3L789 390.8c8.2 8.2 5.2 17.6 4 20.3s-5.7 11.5-17.2 11.5H209.5c-11 0-20 9-20 20s8.9 20.1 20 20.1zM814.5 561.3H248.2c-24.2 0-44.9 13.9-54.2 36.2-9.2 22.3-4.4 46.8 12.7 63.9L314 768.7c3.9 3.9 9 5.9 14.1 5.9s10.2-2 14.1-5.9c7.8-7.8 7.8-20.5 0-28.3L235 633.2c-8.2-8.2-5.2-17.6-4-20.3 1.1-2.7 5.7-11.5 17.2-11.5h566.4c11 0 20-9 20-20s-9-20.1-20.1-20.1z" p-id="21135"></path></svg>