<?xml version="1.0" standalone="no"?><!DOCTYPE svg PUBLIC "-//W3C//DTD SVG 1.1//EN" "http://www.w3.org/Graphics/SVG/1.1/DTD/svg11.dtd"><svg t="1520498986921" class="icon" style="" viewBox="0 0 1024 1024" version="1.1" xmlns="http://www.w3.org/2000/svg" p-id="7866" xmlns:xlink="http://www.w3.org/1999/xlink" width="200" height="200"><defs><style type="text/css"></style></defs><path d="M170.464 313.527l-25.094 0 3.812-177.812 717.765 0 3.812 177.812-23.453 0c-8.359-48.719-19.812-83.906-34.359-105.547-14.547-21.625-30.188-34.906-46.906-39.812s-45.266-7.359-85.625-7.359L561.526 160.809l0 521.953c0 57.812 1.359 95.812 4.078 114s10.094 31.641 22.094 40.359 34.531 13.078 67.625 13.078l36 0 0 25.094L322.636 875.293l0-25.094 38.172 0c31.625 0 53.531-4 65.719-12s20-20.453 23.453-37.359 5.188-56.266 5.188-118.078L455.168 160.808 345.542 160.808c-47.641 0-79.641 2.281-96 6.812-16.375 4.547-31.734 18.281-46.094 41.188S178.089 266.621 170.464 313.527z" p-id="7867"></path></svg>