<?xml version="1.0" standalone="no"?><!DOCTYPE svg PUBLIC "-//W3C//DTD SVG 1.1//EN" "http://www.w3.org/Graphics/SVG/1.1/DTD/svg11.dtd"><svg t="1520499967350" class="icon" style="" viewBox="0 0 1024 1024" version="1.1" xmlns="http://www.w3.org/2000/svg" p-id="10640" xmlns:xlink="http://www.w3.org/1999/xlink" width="200" height="200"><defs><style type="text/css"></style></defs><path d="M802.00704 59.392c-11.8272 29.17376-22.55872 53.38112-23.66464 54.21056-1.10592 0.55296-26.14272 3.03104-55.31648 5.23264-29.16352 2.47808-54.75328 4.67968-56.96512 4.95616-3.0208 0.27648 68.51584 64.11264 83.10784 73.74848 1.37216 1.09568-3.30752 25.31328-11.008 57.78432-7.70048 30.8224-13.48608 56.68864-12.93312 57.23136 0.55296 0.55296 22.29248-12.38016 48.4352-28.6208 26.14272-16.50688 48.97792-29.71648 50.36032-29.71648 1.64864 0 24.2176 13.48608 50.36032 29.44 26.4192 16.2304 48.15872 29.17376 48.71168 28.6208 0.55296-0.55296-5.23264-25.0368-12.65664-54.48704-7.15776-29.44-13.2096-54.48704-13.48608-55.58272 0-1.37216 20.09088-19.26144 44.29824-39.89504 24.49408-20.91008 42.92608-38.2464 40.72448-38.52288-2.2016-0.55296-27.79136-2.47808-57.2416-4.67968-29.44-2.2016-54.21056-5.2224-55.30624-6.32832-1.37216-1.09568-11.008-23.94112-22.016-50.36032s-20.91008-49.80736-22.016-52.00896c-1.09568-2.2016-10.17856 16.50688-23.38816 48.97792zM349.34784 97.92512c-64.6656 22.8352-123.00288 59.98592-171.9808 108.96384C35.3792 348.8768 1.24928 563.24096 92.33408 742.10304c23.66464 45.95712 48.4352 80.35328 85.03296 116.95104 160.1536 160.1536 409.73312 180.51072 595.75296 48.71168 33.29024-23.66464 81.44896-71.82336 105.1136-105.1136 23.38816-33.30048 48.42496-81.17248 61.09184-118.04672 5.49888-15.68768 9.63584-29.16352 9.08288-29.71648s-4.67968 4.4032-8.8064 10.73152c-48.71168 74.02496-130.16064 134.56384-217.66144 161.52576-42.92608 13.2096-74.02496 17.88928-122.17344 17.88928-67.97312 0-117.504-11.56096-177.48992-40.72448-43.47904-21.46304-77.04576-44.8512-108.6976-75.95008-111.17568-109.2608-151.07072-271.616-102.92224-419.3792 25.0368-77.59872 84.75648-159.32416 149.1456-204.45184 30.54592-21.1968 30.54592-21.47328-10.45504-6.6048z" p-id="10641"></path><path d="M445.65504 226.97984c-3.57376 8.52992-7.70048 16.50688-9.35936 17.6128-1.64864 1.09568-10.45504 2.2016-19.53792 2.2016l-16.50688 0.27648 14.30528 12.93312 14.58176 12.93312-3.85024 16.50688c-2.2016 9.08288-3.85024 16.78336-3.57376 17.05984 0.27648 0.27648 7.43424-3.57376 15.68768-8.8064l14.85824-9.08288 14.58176 9.35936c7.97696 5.23264 15.13472 9.35936 15.68768 9.35936 0.55296 0-0.82944-7.70048-3.29728-17.05984l-4.12672-17.05984 12.65664-11.56096c7.15776-6.32832 12.93312-12.38016 12.93312-13.2096 0-0.82944-7.70048-1.64864-17.05984-2.2016l-17.05984-0.82944-7.15776-17.05984-7.15776-17.33632-6.6048 15.96416zM552.15104 437.76l-21.46304 53.10464-51.456 3.584c-28.34432 1.92512-54.21056 4.4032-57.78432 5.23264-5.77536 1.64864-1.37216 6.05184 37.15072 38.52288 34.11968 29.17376 43.20256 37.96992 42.6496 42.6496-0.55296 3.30752-6.6048 28.34432-13.2096 56.13568s-12.10368 51.17952-12.10368 52.00896c0 0.82944 3.30752-0.55296 7.15776-3.03104 3.85024-2.75456 26.14272-16.50688 49.2544-31.09888l42.6496-26.14272 48.15872 29.44c26.69568 16.2304 48.97792 28.89728 49.80736 28.06784 0.82944-0.82944-4.12672-24.49408-11.008-52.8384s-12.65664-52.82816-12.65664-55.04c0-1.92512 19.26144-20.09088 42.92608-40.17152 50.6368-43.20256 53.11488-38.79936-22.29248-44.30848l-49.53088-3.57376-22.016-53.10464c-12.10368-28.89728-22.56896-52.8384-23.38816-52.8384-0.82944 0.02048-11.008 23.9616-22.84544 53.4016zM69.77536 936.6528c-7.424 17.05984-7.70048 17.33632-18.70848 17.6128-6.32832 0.27648-14.03904 1.10592-17.6128 1.92512-5.77536 1.92512-5.23264 2.47808 7.43424 12.65664l13.48608 10.73152-3.85024 16.50688c-2.2016 9.08288-3.57376 16.78336-3.03104 17.33632 0.55296 0.55296 7.15776-2.75456 14.58176-7.70048l13.48608-8.52992 15.96416 8.8064c8.52992 4.67968 15.68768 7.70048 15.68768 6.6048 0-1.09568-1.92512-8.8064-3.85024-16.78336l-3.87072-14.31552 13.48608-11.8272c12.65664-10.73152 13.2096-11.56096 7.424-13.48608-3.57376-0.82944-11.56096-1.64864-17.6128-1.92512-11.56096-0.27648-11.56096-0.27648-18.432-17.6128l-7.15776-17.05984-7.424 17.05984zM935.74144 938.8544c-5.49888 12.93312-7.424 15.13472-13.48608 15.13472-4.12672 0-12.11392 0.82944-17.88928 1.92512l-10.45504 1.64864 13.2096 11.56096 13.2096 11.56096-3.57376 15.95392c-1.64864 8.8064-2.75456 16.50688-2.2016 17.05984 0.55296 0.55296 7.15776-2.75456 14.85824-7.70048l14.03904-8.52992 14.30528 8.52992c7.71072 4.95616 14.58176 8.25344 15.4112 7.70048 0.55296-0.82944-0.55296-8.25344-2.75456-16.78336l-4.12672-15.4112 13.76256-12.11392 14.0288-12.10368-18.16576-1.92512-18.16576-1.92512-5.77536-14.85824c-3.29728-8.25344-6.88128-14.85824-7.97696-14.85824-1.09568 0-4.94592 6.88128-8.25344 15.13472z" p-id="10642"></path></svg>