<?xml version="1.0" standalone="no"?><!DOCTYPE svg PUBLIC "-//W3C//DTD SVG 1.1//EN" "http://www.w3.org/Graphics/SVG/1.1/DTD/svg11.dtd"><svg t="1520671392516" class="icon" style="" viewBox="0 0 1024 1024" version="1.1" xmlns="http://www.w3.org/2000/svg" p-id="1920" xmlns:xlink="http://www.w3.org/1999/xlink" width="200" height="200"><defs><style type="text/css"></style></defs><path d="M418.909091 768V349.090909c0-13.963636-9.309091-23.272727-23.272727-23.272727s-23.272727 9.309091-23.272728 23.272727v418.909091c0 13.963636 9.309091 23.272727 23.272728 23.272727s23.272727-9.309091 23.272727-23.272727z m395.636364 162.909091c0 25.6-20.945455 46.545455-46.545455 46.545454H256c-25.6 0-46.545455-20.945455-46.545455-46.545454V349.090909c0-13.963636-9.309091-23.272727-23.272727-23.272727s-23.272727 9.309091-23.272727 23.272727v581.818182c0 51.2 41.890909 93.090909 93.090909 93.090909h512c51.2 0 93.090909-41.890909 93.090909-93.090909V349.090909c0-13.963636-9.309091-23.272727-23.272727-23.272727s-23.272727 9.309091-23.272727 23.272727v581.818182z m139.636363-744.727273h-162.909091V93.090909c0-51.2-41.890909-93.090909-93.090909-93.090909H325.818182c-51.2 0-93.090909 41.890909-93.090909 93.090909v93.090909H69.818182c-13.963636 0-23.272727 9.309091-23.272727 23.272727s9.309091 23.272727 23.272727 23.272728h884.363636c13.963636 0 23.272727-9.309091 23.272727-23.272728s-9.309091-23.272727-23.272727-23.272727z m-209.454545 0H279.272727V93.090909c0-25.6 20.945455-46.545455 46.545455-46.545454h372.363636c25.6 0 46.545455 20.945455 46.545455 46.545454v93.090909z m-93.090909 581.818182V349.090909c0-13.963636-9.309091-23.272727-23.272728-23.272727s-23.272727 9.309091-23.272727 23.272727v418.909091c0 13.963636 9.309091 23.272727 23.272727 23.272727s23.272727-9.309091 23.272728-23.272727z" fill="#666666" p-id="1921"></path></svg>